<svg width="177" height="63" viewBox="0 0 177 63" fill="none" xmlns="http://www.w3.org/2000/svg">
<rect width="177" height="62.4706" fill="black"/>
<rect x="8" y="31" width="19" height="19" fill="#3D3D3D"/>
<rect x="26" y="16" width="19" height="19" fill="#3D3D3D"/>
<rect x="75" y="31" width="19" height="19" fill="#3D3D3D"/>
<rect x="90" y="16" width="19" height="19" fill="#3D3D3D"/>
<rect x="134" y="31" width="19" height="19" fill="#3D3D3D"/>
<rect x="150" y="16" width="19" height="19" fill="#3D3D3D"/>
<path d="M21.1175 32.273C22.7455 32.273 23.9172 31.8845 24.6325 31.1075C25.3478 30.3305 25.7055 29.2452 25.7055 27.8515C25.7055 27.2348 25.613 26.6737 25.428 26.168C25.243 25.6623 24.9593 25.2307 24.577 24.873C24.207 24.503 23.7322 24.2193 23.1525 24.022C22.5852 23.8247 21.9068 23.726 21.1175 23.726H17.8615V32.273H21.1175ZM21.1175 19.0455C23.0168 19.0455 24.6448 19.2737 26.0015 19.73C27.3705 20.174 28.4928 20.7907 29.3685 21.58C30.2565 22.3693 30.9102 23.3005 31.3295 24.3735C31.7488 25.4465 31.9585 26.6058 31.9585 27.8515C31.9585 29.1958 31.7427 30.4292 31.311 31.5515C30.8793 32.6738 30.2195 33.6358 29.3315 34.4375C28.4435 35.2392 27.315 35.8682 25.946 36.3245C24.5893 36.7685 22.9798 36.9905 21.1175 36.9905H17.8615V46H11.6085V19.0455H21.1175ZM40.3295 26.8155V46H34.5945V26.8155H40.3295ZM40.9215 21.5615C40.9215 22.0178 40.829 22.4495 40.644 22.8565C40.459 23.2512 40.2061 23.6027 39.8855 23.911C39.5648 24.207 39.1886 24.4475 38.757 24.6325C38.3376 24.8052 37.8875 24.8915 37.4065 24.8915C36.9378 24.8915 36.5 24.8052 36.093 24.6325C35.686 24.4475 35.3221 24.207 35.0015 23.911C34.6931 23.6027 34.4465 23.2512 34.2615 22.8565C34.0888 22.4495 34.0025 22.0178 34.0025 21.5615C34.0025 21.0928 34.0888 20.655 34.2615 20.248C34.4465 19.841 34.6931 19.4833 35.0015 19.175C35.3221 18.8667 35.686 18.6262 36.093 18.4535C36.5 18.2808 36.9378 18.1945 37.4065 18.1945C37.8875 18.1945 38.3376 18.2808 38.757 18.4535C39.1886 18.6262 39.5648 18.8667 39.8855 19.175C40.2061 19.4833 40.459 19.841 40.644 20.248C40.829 20.655 40.9215 21.0928 40.9215 21.5615ZM62.6812 46H57.1682C56.7612 46 56.4282 45.9013 56.1692 45.704C55.9226 45.5067 55.7252 45.2723 55.5772 45.001L52.1547 39.118C52.0931 39.3277 52.0191 39.525 51.9327 39.71C51.8464 39.895 51.7539 40.0677 51.6552 40.228L48.8432 45.001C48.6706 45.2477 48.4671 45.4758 48.2327 45.6855C47.9984 45.8952 47.6962 46 47.3262 46H42.2202L48.6582 36.084L42.4792 26.8155H47.9922C48.3992 26.8155 48.6952 26.871 48.8802 26.982C49.0776 27.0807 49.2502 27.2533 49.3982 27.5L52.8207 33.1795C52.8947 32.9575 52.9872 32.7417 53.0982 32.532C53.2092 32.31 53.3326 32.088 53.4682 31.866L55.9102 27.5925C56.0829 27.3212 56.2617 27.1238 56.4467 27.0005C56.6441 26.8772 56.8846 26.8155 57.1682 26.8155H62.4222L56.2432 35.825L62.6812 46ZM80.0137 24.5215C79.8287 24.8175 79.6314 25.0395 79.4217 25.1875C79.2244 25.3355 78.9654 25.4095 78.6447 25.4095C78.361 25.4095 78.0527 25.3232 77.7197 25.1505C77.399 24.9655 77.029 24.762 76.6097 24.54C76.2027 24.318 75.734 24.1207 75.2037 23.948C74.6734 23.763 74.069 23.6705 73.3907 23.6705C72.219 23.6705 71.3434 23.9233 70.7637 24.429C70.1964 24.9223 69.9127 25.5945 69.9127 26.4455C69.9127 26.9882 70.0854 27.4383 70.4307 27.796C70.776 28.1537 71.2262 28.462 71.7812 28.721C72.3485 28.98 72.9899 29.2205 73.7052 29.4425C74.4329 29.6522 75.1729 29.8927 75.9252 30.164C76.6775 30.423 77.4114 30.7313 78.1267 31.089C78.8544 31.4467 79.4957 31.903 80.0507 32.458C80.618 33.013 81.0744 33.6913 81.4197 34.493C81.765 35.2823 81.9377 36.2382 81.9377 37.3605C81.9377 38.6062 81.7219 39.7717 81.2902 40.857C80.8585 41.9423 80.2295 42.892 79.4032 43.706C78.5892 44.5077 77.5779 45.1428 76.3692 45.6115C75.1729 46.0678 73.81 46.296 72.2807 46.296C71.442 46.296 70.5849 46.2097 69.7092 46.037C68.8459 45.8643 68.0072 45.6238 67.1932 45.3155C66.3792 44.9948 65.6145 44.6187 64.8992 44.187C64.1839 43.7553 63.561 43.2743 63.0307 42.744L64.8807 39.821C65.0287 39.6113 65.2199 39.4387 65.4542 39.303C65.7009 39.155 65.966 39.081 66.2497 39.081C66.6197 39.081 66.9897 39.1982 67.3597 39.4325C67.742 39.6668 68.1675 39.9258 68.6362 40.2095C69.1172 40.4932 69.666 40.7522 70.2827 40.9865C70.8994 41.2208 71.627 41.338 72.4657 41.338C73.6004 41.338 74.4822 41.0913 75.1112 40.598C75.7402 40.0923 76.0547 39.2968 76.0547 38.2115C76.0547 37.5825 75.882 37.0707 75.5367 36.676C75.1914 36.2813 74.735 35.9545 74.1677 35.6955C73.6127 35.4365 72.9775 35.2083 72.2622 35.011C71.5469 34.8137 70.813 34.5978 70.0607 34.3635C69.3084 34.1168 68.5745 33.8208 67.8592 33.4755C67.1439 33.1178 66.5025 32.6553 65.9352 32.088C65.3802 31.5083 64.93 30.793 64.5847 29.942C64.2394 29.0787 64.0667 28.018 64.0667 26.76C64.0667 25.7487 64.2702 24.762 64.6772 23.8C65.0842 22.838 65.6824 21.9808 66.4717 21.2285C67.261 20.4762 68.2292 19.878 69.3762 19.434C70.5232 18.9777 71.8367 18.7495 73.3167 18.7495C74.143 18.7495 74.9447 18.8173 75.7217 18.953C76.511 19.0763 77.2572 19.2675 77.9602 19.5265C78.6632 19.7732 79.3169 20.0753 79.9212 20.433C80.5379 20.7783 81.0867 21.173 81.5677 21.617L80.0137 24.5215ZM99.0395 31.3665C98.8668 31.5762 98.7003 31.7427 98.54 31.866C98.3797 31.9893 98.1515 32.051 97.8555 32.051C97.5718 32.051 97.3128 31.9832 97.0785 31.8475C96.8565 31.7118 96.6037 31.5638 96.32 31.4035C96.0363 31.2308 95.7033 31.0767 95.321 30.941C94.9387 30.8053 94.4638 30.7375 93.8965 30.7375C93.1935 30.7375 92.583 30.867 92.065 31.126C91.5593 31.385 91.14 31.755 90.807 32.236C90.474 32.717 90.2273 33.309 90.067 34.012C89.9067 34.7027 89.8265 35.4858 89.8265 36.3615C89.8265 38.1992 90.178 39.6113 90.881 40.598C91.5963 41.5847 92.5768 42.078 93.8225 42.078C94.4885 42.078 95.0127 41.9978 95.395 41.8375C95.7897 41.6648 96.1227 41.4798 96.394 41.2825C96.6653 41.0728 96.912 40.8817 97.134 40.709C97.3683 40.5363 97.6582 40.45 98.0035 40.45C98.4598 40.45 98.8052 40.6165 99.0395 40.9495L100.705 43.003C100.113 43.6813 99.4897 44.2363 98.836 44.668C98.1823 45.0873 97.5102 45.4203 96.8195 45.667C96.1412 45.9013 95.4567 46.0617 94.766 46.148C94.0753 46.2467 93.4032 46.296 92.7495 46.296C91.5778 46.296 90.4555 46.074 89.3825 45.63C88.3218 45.186 87.3845 44.5447 86.5705 43.706C85.7688 42.855 85.1275 41.8128 84.6465 40.5795C84.1778 39.3462 83.9435 37.9402 83.9435 36.3615C83.9435 34.9802 84.147 33.6913 84.554 32.495C84.9733 31.2863 85.5838 30.2442 86.3855 29.3685C87.1995 28.4805 88.1985 27.7837 89.3825 27.278C90.5788 26.7723 91.9602 26.5195 93.5265 26.5195C95.0312 26.5195 96.3508 26.76 97.4855 27.241C98.6202 27.722 99.6438 28.425 100.557 29.35L99.0395 31.3665ZM108.302 29.7755C108.894 28.7395 109.572 27.9255 110.337 27.3335C111.114 26.7415 112.002 26.4455 113.001 26.4455C113.864 26.4455 114.567 26.649 115.11 27.056L114.74 31.274C114.678 31.5453 114.573 31.7303 114.425 31.829C114.289 31.9277 114.098 31.977 113.852 31.977C113.753 31.977 113.623 31.9708 113.463 31.9585C113.303 31.9462 113.136 31.9338 112.964 31.9215C112.791 31.8968 112.612 31.8783 112.427 31.866C112.254 31.8413 112.094 31.829 111.946 31.829C111.107 31.829 110.435 32.051 109.93 32.495C109.436 32.939 109.017 33.5557 108.672 34.345V46H102.937V26.8155H106.341C106.624 26.8155 106.859 26.8402 107.044 26.8895C107.241 26.9388 107.401 27.019 107.525 27.13C107.66 27.2287 107.759 27.3643 107.821 27.537C107.895 27.7097 107.956 27.9193 108.006 28.166L108.302 29.7755ZM122.929 26.8155V46H117.194V26.8155H122.929ZM123.521 21.5615C123.521 22.0178 123.429 22.4495 123.244 22.8565C123.059 23.2512 122.806 23.6027 122.485 23.911C122.164 24.207 121.788 24.4475 121.357 24.6325C120.937 24.8052 120.487 24.8915 120.006 24.8915C119.537 24.8915 119.1 24.8052 118.693 24.6325C118.286 24.4475 117.922 24.207 117.601 23.911C117.293 23.6027 117.046 23.2512 116.861 22.8565C116.688 22.4495 116.602 22.0178 116.602 21.5615C116.602 21.0928 116.688 20.655 116.861 20.248C117.046 19.841 117.293 19.4833 117.601 19.175C117.922 18.8667 118.286 18.6262 118.693 18.4535C119.1 18.2808 119.537 18.1945 120.006 18.1945C120.487 18.1945 120.937 18.2808 121.357 18.4535C121.788 18.6262 122.164 18.8667 122.485 19.175C122.806 19.4833 123.059 19.841 123.244 20.248C123.429 20.655 123.521 21.0928 123.521 21.5615ZM132.664 40.783C133.095 41.2517 133.564 41.5847 134.07 41.782C134.575 41.9793 135.087 42.078 135.605 42.078C136.148 42.078 136.647 41.9793 137.104 41.782C137.56 41.5723 137.949 41.2393 138.269 40.783C138.602 40.3143 138.861 39.7038 139.046 38.9515C139.231 38.1868 139.324 37.2495 139.324 36.1395C139.324 35.1775 139.25 34.3635 139.102 33.6975C138.966 33.0192 138.756 32.4703 138.473 32.051C138.201 31.6193 137.856 31.311 137.437 31.126C137.03 30.9287 136.561 30.83 136.031 30.83C135.328 30.83 134.717 30.9842 134.199 31.2925C133.681 31.6008 133.169 32.051 132.664 32.643V40.783ZM132.664 28.8505C133.404 28.1475 134.212 27.5863 135.087 27.167C135.975 26.7353 136.962 26.5195 138.047 26.5195C139.133 26.5195 140.119 26.7415 141.007 27.1855C141.895 27.6295 142.654 28.2647 143.283 29.091C143.912 29.905 144.393 30.8917 144.726 32.051C145.071 33.2103 145.244 34.5053 145.244 35.936C145.244 37.49 145.046 38.9022 144.652 40.1725C144.257 41.4428 143.696 42.5343 142.968 43.447C142.253 44.3473 141.396 45.0503 140.397 45.556C139.398 46.0493 138.294 46.296 137.085 46.296C136.506 46.296 135.988 46.2405 135.531 46.1295C135.075 46.0185 134.656 45.8643 134.273 45.667C133.891 45.4573 133.539 45.2107 133.219 44.927C132.91 44.6433 132.608 44.335 132.312 44.002L132.109 44.964C132.01 45.3587 131.85 45.63 131.628 45.778C131.406 45.926 131.11 46 130.74 46H126.929V18.3055H132.664V28.8505ZM160.107 34.1045C160.107 33.6482 160.046 33.2042 159.922 32.7725C159.811 32.3408 159.62 31.9585 159.349 31.6255C159.09 31.2802 158.745 31.0027 158.313 30.793C157.881 30.5833 157.357 30.4785 156.74 30.4785C155.655 30.4785 154.804 30.793 154.187 31.422C153.571 32.0387 153.164 32.9328 152.966 34.1045H160.107ZM152.892 37.4345C153.077 39.0378 153.565 40.2033 154.354 40.931C155.143 41.6463 156.161 42.004 157.406 42.004C158.072 42.004 158.646 41.9238 159.127 41.7635C159.608 41.6032 160.033 41.4243 160.403 41.227C160.786 41.0297 161.131 40.8508 161.439 40.6905C161.76 40.5302 162.093 40.45 162.438 40.45C162.895 40.45 163.24 40.6165 163.474 40.9495L165.139 43.003C164.547 43.6813 163.906 44.2363 163.215 44.668C162.537 45.0873 161.834 45.4203 161.106 45.667C160.391 45.9013 159.67 46.0617 158.942 46.148C158.227 46.2467 157.542 46.296 156.888 46.296C155.544 46.296 154.28 46.0802 153.096 45.6485C151.924 45.2045 150.894 44.5508 150.006 43.6875C149.131 42.8242 148.434 41.7512 147.916 40.4685C147.41 39.1858 147.157 37.6935 147.157 35.9915C147.157 34.7088 147.373 33.494 147.805 32.347C148.249 31.2 148.878 30.1948 149.692 29.3315C150.518 28.4682 151.511 27.7837 152.67 27.278C153.842 26.7723 155.162 26.5195 156.629 26.5195C157.9 26.5195 159.059 26.7168 160.107 27.1115C161.168 27.5062 162.075 28.0797 162.827 28.832C163.592 29.5843 164.184 30.5093 164.603 31.607C165.035 32.6923 165.25 33.9257 165.25 35.307C165.25 35.7387 165.232 36.0902 165.195 36.3615C165.158 36.6328 165.09 36.8487 164.991 37.009C164.893 37.1693 164.757 37.2803 164.584 37.342C164.424 37.4037 164.214 37.4345 163.955 37.4345H152.892Z" fill="white"/>
</svg>
