<svg width="25" height="25" viewBox="0 0 25 25" fill="none" xmlns="http://www.w3.org/2000/svg">
<path d="M22.2222 22.5H2.77778V8.75H22.2222M18.0556 0V2.5H6.94444V0H4.16667V2.5H2.77778C1.23611 2.5 0 3.6125 0 5V22.5C0 23.163 0.292658 23.7989 0.813592 24.2678C1.33453 24.7366 2.04107 25 2.77778 25H22.2222C22.9589 25 23.6655 24.7366 24.1864 24.2678C24.7073 23.7989 25 23.163 25 22.5V5C25 4.33696 24.7073 3.70107 24.1864 3.23223C23.6655 2.76339 22.9589 2.5 22.2222 2.5H20.8333V0M19.4444 13.75H12.5V20H19.4444V13.75Z" fill="#495057"/>
</svg>
