<svg width="25" height="25" viewBox="0 0 25 25" fill="none" xmlns="http://www.w3.org/2000/svg">
<path d="M8.09028 12.5L10.1389 10.4514C10.4167 10.1736 10.5556 9.84954 10.5556 9.47917C10.5556 9.1088 10.4167 8.78472 10.1389 8.50694C9.86111 8.22917 9.53148 8.09028 9.15 8.09028C8.76759 8.09028 8.4375 8.22917 8.15972 8.50694L5.13889 11.5278C5 11.6667 4.90185 11.8171 4.84444 11.9792C4.78611 12.1412 4.75694 12.3148 4.75694 12.5C4.75694 12.6852 4.78611 12.8588 4.84444 13.0208C4.90185 13.1829 5 13.3333 5.13889 13.4722L8.15972 16.4931C8.4375 16.7708 8.76759 16.9097 9.15 16.9097C9.53148 16.9097 9.86111 16.7708 10.1389 16.4931C10.4167 16.2153 10.5556 15.8912 10.5556 15.5208C10.5556 15.1505 10.4167 14.8264 10.1389 14.5486L8.09028 12.5ZM16.9097 12.5L14.8611 14.5486C14.5833 14.8264 14.4444 15.1505 14.4444 15.5208C14.4444 15.8912 14.5833 16.2153 14.8611 16.4931C15.1389 16.7708 15.469 16.9097 15.8514 16.9097C16.2329 16.9097 16.5625 16.7708 16.8403 16.4931L19.8611 13.4722C20 13.3333 20.0981 13.1829 20.1556 13.0208C20.2139 12.8588 20.2431 12.6852 20.2431 12.5C20.2431 12.3148 20.2139 12.1412 20.1556 11.9792C20.0981 11.8171 20 11.6667 19.8611 11.5278L16.8403 8.50694C16.7014 8.36806 16.5454 8.26389 16.3722 8.19444C16.1981 8.125 16.0245 8.09028 15.8514 8.09028C15.6773 8.09028 15.5037 8.125 15.3306 8.19444C15.1565 8.26389 15 8.36806 14.8611 8.50694C14.5833 8.78472 14.4444 9.1088 14.4444 9.47917C14.4444 9.84954 14.5833 10.1736 14.8611 10.4514L16.9097 12.5ZM2.77778 25C2.01389 25 1.35972 24.7282 0.815278 24.1847C0.271759 23.6403 0 22.9861 0 22.2222V2.77778C0 2.01389 0.271759 1.35972 0.815278 0.815278C1.35972 0.271759 2.01389 0 2.77778 0H22.2222C22.9861 0 23.6403 0.271759 24.1847 0.815278C24.7282 1.35972 25 2.01389 25 2.77778V22.2222C25 22.9861 24.7282 23.6403 24.1847 24.1847C23.6403 24.7282 22.9861 25 22.2222 25H2.77778Z" fill="#495057"/>
</svg>
