<svg width="25" height="23" viewBox="0 0 25 23" fill="none" xmlns="http://www.w3.org/2000/svg">
<path d="M9.24609 17.0128C6.66193 17.0128 4.47511 16.1892 2.68563 14.542C0.89616 12.8948 0.000949069 10.883 7.52632e-07 8.5064C-0.000947564 6.12984 0.894263 4.11797 2.68563 2.47078C4.477 0.823594 6.66382 0 9.24609 0C11.8284 0 14.0156 0.823594 15.808 2.47078C17.6003 4.11797 18.495 6.12984 18.4922 8.5064C18.4922 9.4661 18.3262 10.3713 17.9943 11.2219C17.6624 12.0725 17.2119 12.825 16.643 13.4794L24.6088 20.808C24.8696 21.0479 25 21.3532 25 21.724C25 22.0948 24.8696 22.4002 24.6088 22.6401C24.348 22.88 24.0161 23 23.6131 23C23.2101 23 22.8781 22.88 22.6174 22.6401L14.6515 15.3115C13.9403 15.835 13.1223 16.2494 12.1977 16.5548C11.2731 16.8601 10.2892 17.0128 9.24609 17.0128ZM9.24609 14.3954C11.0242 14.3954 12.5358 13.8231 13.7809 12.6785C15.0261 11.5338 15.6482 10.1431 15.6472 8.5064C15.6463 6.86968 15.0242 5.47943 13.7809 4.33565C12.5377 3.19186 11.0261 2.6191 9.24609 2.61735C7.4661 2.61561 5.95496 3.18837 4.71266 4.33565C3.47037 5.48292 2.8478 6.87317 2.84495 8.5064C2.84211 10.1396 3.46468 11.5303 4.71266 12.6785C5.96065 13.8266 7.47179 14.3989 9.24609 14.3954Z" fill="#495057"/>
</svg>
